# xmcd
#
# Track frame offsets:
#	150
#	13653
#	27260
#	41932
#	57037
#	73507
#	95489
#	109441
#	124929
#	138011
#	153636
#	167625
#	180633
#	193250
#	208401
#
# Disc length: 2950 seconds
#
# Revision: 1
# Processed by: cddbd v1.5.1PL0 Copyright (c) Steve Scherf et al.
# Submitted via: audiograbber 1.82.02
#
DISCID=dd0b840f
DTITLE=Merle Haggard - ChartBusters Merle Haggard Vol 1
DYEAR=1900
DGENRE=Karaoke
TTITLE0=Merle Haggard - Fightin' side of me
TTITLE1=Merle Haggard - The bottle let me down
TTITLE2=Merle Haggard - The farmer's daughter
TTITLE3=Merle Haggard - I'm a lonesome fugitive
TTITLE4=Merle Haggard - Daddy Frank ( the guitar man )
TTITLE5=Merle Haggard - Just stay here and drink
TTITLE6=Merle Haggard - Swinging doors
TTITLE7=Merle Haggard - It's all in the movies
TTITLE8=Merle Haggard - Let's chase each other 'round the room tonight
TTITLE9=Merle Haggard - It's not love, but it's not bad
TTITLE10=Merle Haggard - Everybody's had the blues
TTITLE11=Merle Haggard - Sing me back home
TTITLE12=Merle Haggard - Things aren't funny anymore
TTITLE13=Merle Haggard - If we're not back in love by Monday
TTITLE14=Merle Haggard - A better love next time
EXTD=
EXTT0=
EXTT1=
EXTT2=
EXTT3=
EXTT4=
EXTT5=
EXTT6=
EXTT7=
EXTT8=
EXTT9=
EXTT10=
EXTT11=
EXTT12=
EXTT13=
EXTT14=
PLAYORDER=
